# xmcd
#
# Track frame offsets:
#	150
#	18948
#	35341
#	47483
#	66503
#	84458
#	100996
#	120953
#	139483
#	157357
#	175487
#	192809
#	210323
#	228202
#	244458
#	260930
#	274303
#	291004
#	306318
#	325608
#	341644
#
# Disc length: 4796 seconds
#
# Revision: 8
# Processed by: cddbd v1.5.1PL0 Copyright (c) Steve Scherf et al.
# Submitted via: EasyCDDAExtractor 8.0.2.1
#
DISCID=3d12ba15
DTITLE=Various Artist - Super Italia Vol. 17
DYEAR=2005
DGENRE=Techno
TTITLE0=Sound On Line - Creepin' 2005 (Bis Italo Dance Radio Mix)
TTITLE1=Tres Bien Feat. Ilona - Un Monde Parfait (72 Fast and Furious Remix Radi
TTITLE1=o Edit)
TTITLE2=Gigi D'Agostino  - Wellfare
TTITLE3=Molinaro Vs. Provenzano - Running Up
TTITLE4=Prezioso - Muzik
TTITLE5=The Ninjas Vs. Gabry Ponte - Con Noi (The Mutant Ninja Turtles)
TTITLE6=Caramel and Nuts - It's A Miracle
TTITLE7=2 Small DJ's - I Only Wanna Be With You
TTITLE8=Promiseland - Live Your Life (Hard Dance Style Radio)
TTITLE9=Molella - Village Groove
TTITLE10=Hotel Saint George - I Don't Know Why
TTITLE11=C.O. - California (Chino Radio Edit)
TTITLE12=Masha - Be My Girl
TTITLE13=Arsenium - Love Me..., Love Me... (Dj Ross Radio Remix)
TTITLE14=Floorfilla - Time 2 Move
TTITLE15=Glozzi - There Is The Girl
TTITLE16=No Risk - Don't Be Afriad
TTITLE17=Dee-Bee - We'll Fly Away (Girasole Radio Mix)
TTITLE18=Uomo Suono - Geht's Noch?
TTITLE19=Disco Bee - From Paris To Berlin (Polgi E Gabani Mix)
TTITLE20=O-Zone - Dar, Unde Esti
EXTD=
EXTT0=
EXTT1=
EXTT2=
EXTT3=
EXTT4=
EXTT5=
EXTT6=
EXTT7=
EXTT8=
EXTT9=
EXTT10=
EXTT11=
EXTT12=
EXTT13=
EXTT14=
EXTT15=
EXTT16=
EXTT17=
EXTT18=
EXTT19=
EXTT20=
PLAYORDER=
